<svg xmlns="http://www.w3.org/2000/svg" viewBox="0 0 60 60" width="60" height="60">
	<style>
		tspan { white-space:pre }
		.shp0 { fill: #ffffff } 
	</style>
	<path id="aggiungi_cliente" class="shp0" d="M31.96 20.22C31.96 17.46 31.05 15.1 29.22 13.15C27.38 11.2 25.18 10.22 22.59 10.22C20 10.22 17.79 11.2 15.96 13.15C14.13 15.1 13.21 17.46 13.21 20.22C13.21 22.98 14.13 25.34 15.96 27.29C17.79 29.24 20 30.22 22.59 30.22C25.18 30.22 27.38 29.24 29.22 27.29C31.05 25.34 31.96 22.98 31.96 20.22ZM46.03 24.39C46.03 24.16 45.95 23.97 45.79 23.8C45.64 23.64 45.46 23.55 45.24 23.55L40.56 23.55C40.34 23.55 40.16 23.64 40.01 23.8C39.85 23.97 39.77 24.16 39.77 24.39L39.77 33.55L31.18 33.55C30.97 33.55 30.79 33.64 30.63 33.8C30.48 33.97 30.4 34.16 30.4 34.39L30.4 39.39C30.4 39.61 30.48 39.81 30.63 39.97C30.79 40.14 30.97 40.22 31.18 40.22L39.77 40.22L39.77 49.39C39.77 49.61 39.85 49.81 40.01 49.97C40.16 50.14 40.34 50.22 40.56 50.22L45.24 50.22C45.46 50.22 45.64 50.14 45.79 49.97C45.95 49.81 46.03 49.61 46.03 49.39L46.03 40.22L54.62 40.22C54.83 40.22 55.01 40.14 55.17 39.97C55.32 39.81 55.4 39.61 55.4 39.39L55.4 34.39C55.4 34.16 55.32 33.97 55.17 33.8C55.01 33.64 54.83 33.55 54.62 33.55L46.03 33.55L46.03 24.39ZM28.06 34.39C28.06 33.48 28.37 32.7 28.98 32.04C29.6 31.38 30.33 31.05 31.18 31.05L36.63 31.05C35.24 29.39 33.48 28.55 31.33 28.55C31.02 28.55 30.7 28.7 30.38 29C29.09 30.06 27.83 30.85 26.6 31.38C25.37 31.91 24.04 32.17 22.59 32.17C21.14 32.17 19.8 31.91 18.57 31.38C17.34 30.85 16.08 30.06 14.8 29C14.47 28.7 14.16 28.55 13.85 28.55C12.85 28.55 11.95 28.73 11.13 29.07C10.3 29.42 9.61 29.89 9.04 30.47C8.47 31.05 7.96 31.75 7.52 32.58C7.08 33.4 6.73 34.25 6.47 35.12C6.21 35.98 6 36.93 5.83 37.94C5.66 38.96 5.54 39.9 5.49 40.78C5.43 41.66 5.4 42.56 5.4 43.48C5.4 45.58 5.99 47.23 7.18 48.42C8.37 49.62 9.95 50.22 11.92 50.22L33.26 50.22C34.93 50.22 36.32 49.79 37.43 48.92L37.43 42.72L31.18 42.72C30.33 42.72 29.6 42.39 28.98 41.73C28.37 41.07 28.06 40.29 28.06 39.39L28.06 34.39Z" />
</svg>