<svg xmlns="http://www.w3.org/2000/svg" viewBox="0 0 28 29" width="28" height="29">
	<style>
		tspan { white-space:pre }
		.shp0 { fill: #ffffff } 
	</style>
	<path id="edit_icon" class="shp0" d="M13.06 21L13.06 19.09L11.55 19.09L11.55 17.98L13.37 15.67L15.76 18.69L13.94 21L13.06 21ZM20.83 7.34L15.33 14.3C15.16 14.52 14.98 14.53 14.82 14.32C14.65 14.11 14.65 13.89 14.83 13.66L20.33 6.7C20.5 6.48 20.68 6.47 20.84 6.68C21.01 6.89 21.01 7.11 20.83 7.34L20.83 7.34ZM21.78 17.92C21.58 17.81 21.39 17.86 21.24 18.06L20.23 19.33C20.14 19.45 20.09 19.59 20.09 19.77L20.09 22.27C20.09 23.15 19.84 23.9 19.35 24.52C18.86 25.14 18.27 25.45 17.58 25.45L4.52 25.45C3.83 25.45 3.24 25.14 2.75 24.52C2.25 23.9 2.01 23.15 2.01 22.27L2.01 5.73C2.01 4.85 2.25 4.1 2.75 3.48C3.24 2.86 3.83 2.55 4.52 2.55L17.58 2.55C17.81 2.55 18.04 2.59 18.28 2.66C18.47 2.74 18.64 2.69 18.79 2.51L19.56 1.53C19.68 1.37 19.73 1.18 19.7 0.95C19.67 0.74 19.57 0.59 19.41 0.5C18.85 0.17 18.24 0 17.58 0L4.52 0C3.27 0 2.21 0.56 1.33 1.68C0.44 2.8 0 4.15 0 5.73L0 22.27C0 23.85 0.44 25.2 1.33 26.32C2.21 27.44 3.27 28 4.52 28L17.58 28C18.82 28 19.89 27.44 20.77 26.32C21.66 25.2 22.1 23.85 22.1 22.27L22.1 18.49C22.1 18.22 21.99 18.02 21.78 17.92ZM10.04 17.18L10.04 22.91L14.57 22.91L25.11 9.55L20.59 3.82L10.04 17.18ZM28 5.09C28 4.56 27.85 4.11 27.56 3.74L25.17 0.72C24.88 0.34 24.53 0.16 24.11 0.16C23.69 0.16 23.33 0.34 23.04 0.72L21.6 2.55L26.12 8.27L27.56 6.44C27.85 6.07 28 5.62 28 5.09Z" />
</svg>