<svg xmlns="http://www.w3.org/2000/svg" viewBox="0 0 28 28" width="28" height="28">
	<style>
		tspan { white-space:pre }
		.shp0 { fill: #ffffff } 
	</style>
	<path id="Shape 1" class="shp0" d="M27.34 20.93L20.41 14L27.34 7.07C27.78 6.63 28 6.1 28 5.47C28 4.84 27.78 4.31 27.34 3.87L24.13 0.66C23.69 0.22 23.16 0 22.53 0C21.9 0 21.37 0.22 20.93 0.66L14 7.59L7.07 0.66C6.63 0.22 6.1 0 5.47 0C4.84 0 4.31 0.22 3.87 0.66L0.66 3.87C0.22 4.31 0 4.84 0 5.47C0 6.1 0.22 6.63 0.66 7.07L7.59 14L0.66 20.93C0.22 21.37 0 21.9 0 22.53C0 23.16 0.22 23.69 0.66 24.13L3.87 27.34C4.31 27.78 4.84 28 5.47 28C6.1 28 6.63 27.78 7.07 27.34L14 20.41L20.93 27.34C21.37 27.78 21.9 28 22.53 28C23.16 28 23.69 27.78 24.13 27.34L27.34 24.13C27.78 23.69 28 23.16 28 22.53C28 21.9 27.78 21.37 27.34 20.93L27.34 20.93Z" />
</svg>