<svg xmlns="http://www.w3.org/2000/svg" viewBox="0 0 60 60" width="60" height="60">
	<style>
		tspan { white-space:pre }
		.shp0 { fill: #ffffff } 
	</style>
	<path id="rimuovi_cliente" class="shp0" d="M32.68 19.82C32.68 17.06 31.76 14.7 29.92 12.75C28.08 10.8 25.86 9.82 23.26 9.82C20.66 9.82 18.44 10.8 16.61 12.75C14.77 14.7 13.85 17.06 13.85 19.82C13.85 22.58 14.77 24.94 16.61 26.89C18.44 28.84 20.66 29.82 23.26 29.82C25.86 29.82 28.08 28.84 29.92 26.89C31.76 24.94 32.68 22.58 32.68 19.82ZM55.78 31.67C55.93 31.51 56 31.31 56 31.07C56 30.84 55.93 30.65 55.78 30.5L52.44 26.96C52.3 26.8 52.12 26.72 51.9 26.72C51.68 26.72 51.49 26.8 51.34 26.96L45.23 33.44L39.13 26.96C38.98 26.8 38.79 26.72 38.56 26.72C38.35 26.72 38.17 26.8 38.03 26.96L34.69 30.5C34.54 30.65 34.47 30.84 34.47 31.07C34.47 31.31 34.54 31.51 34.69 31.67L40.8 38.15L34.69 44.64C34.54 44.79 34.47 44.99 34.47 45.24C34.47 45.46 34.54 45.65 34.69 45.81L38.03 49.35C38.17 49.51 38.35 49.59 38.56 49.59C38.79 49.59 38.98 49.51 39.13 49.35L45.23 42.87L51.34 49.35C51.49 49.51 51.68 49.59 51.9 49.59C52.12 49.59 52.3 49.51 52.44 49.35L55.78 45.81C55.93 45.65 56 45.46 56 45.24C56 44.99 55.93 44.79 55.78 44.64L49.67 38.15L55.78 31.67ZM33.02 33.44C32.42 32.8 32.12 32.01 32.12 31.07C32.12 30.5 32.22 30.01 32.43 29.61C32.65 29.21 32.98 28.78 33.44 28.31C32.97 28.21 32.5 28.15 32.04 28.15C31.73 28.15 31.41 28.3 31.09 28.6C28.57 30.71 25.96 31.77 23.26 31.77C20.57 31.77 17.96 30.71 15.44 28.6C15.11 28.3 14.79 28.15 14.48 28.15C13.49 28.15 12.58 28.33 11.75 28.67C10.92 29.02 10.23 29.49 9.65 30.07C9.08 30.65 8.57 31.35 8.13 32.18C7.69 33 7.34 33.85 7.08 34.72C6.82 35.58 6.6 36.53 6.43 37.54C6.26 38.56 6.14 39.5 6.09 40.38C6.03 41.26 6 42.16 6 43.08C6 45.18 6.6 46.83 7.79 48.02C8.98 49.22 10.57 49.82 12.55 49.82L33.98 49.82C34.36 49.82 34.72 49.79 35.06 49.74L33.02 47.58C32.42 46.94 32.12 46.16 32.12 45.24C32.12 44.3 32.42 43.51 33.02 42.87L37.46 38.15L33.02 33.44Z" />
</svg>