<svg xmlns="http://www.w3.org/2000/svg" viewBox="0 0 60 60" width="60" height="60">
	<style>
		tspan { white-space:pre }
		.shp0 { fill: #ffffff } 
	</style>
	<path id="Shape 1" class="shp0" d="M30.9 43.52L52.54 21.1C52.84 20.78 53 20.41 53 19.99C53 19.58 52.84 19.21 52.54 18.89L50.21 16.48C49.9 16.16 49.55 16 49.15 16C48.74 16 48.39 16.16 48.08 16.48L29.83 35.39L11.58 16.48C11.27 16.16 10.91 16 10.51 16C10.11 16 9.75 16.16 9.44 16.48L7.12 18.89C6.81 19.21 6.66 19.58 6.66 19.99C6.66 20.41 6.81 20.78 7.12 21.1L28.76 43.52C29.07 43.84 29.42 44 29.83 44C30.23 44 30.59 43.84 30.9 43.52L30.9 43.52Z" />
</svg>