<svg xmlns="http://www.w3.org/2000/svg" viewBox="0 0 107 120" width="107" height="120">
	<style>
		tspan { white-space:pre }
		.shp0 { fill: #ffffff } 
	</style>
	<path id="Shape 1" class="shp0" d="M106.73 91.18C106.56 88.57 106.2 85.74 105.67 82.71C105.14 79.68 104.47 76.87 103.66 74.28C102.85 71.69 101.76 69.17 100.39 66.7C99.02 64.25 97.45 62.15 95.68 60.41C93.9 58.68 91.74 57.29 89.18 56.25C86.62 55.22 83.8 54.7 80.71 54.7C80.25 54.7 79.19 55.26 77.51 56.37C75.84 57.49 73.95 58.73 71.85 60.1C69.75 61.47 67.01 62.72 63.65 63.83C60.28 64.94 56.89 65.5 53.5 65.5C50.11 65.5 46.72 64.94 43.35 63.83C39.98 62.72 37.25 61.47 35.15 60.1C33.04 58.73 31.16 57.49 29.49 56.37C27.81 55.26 26.75 54.7 26.29 54.7C23.2 54.7 20.38 55.22 17.82 56.25C15.26 57.29 13.1 58.68 11.32 60.41C9.55 62.15 7.98 64.25 6.61 66.7C5.24 69.17 4.15 71.69 3.34 74.28C2.53 76.87 1.86 79.68 1.33 82.71C0.8 85.74 0.44 88.57 0.27 91.18C0.09 93.8 0 96.48 0 99.22C0 105.44 1.85 110.35 5.55 113.95C9.25 117.55 14.16 119.35 20.29 119.35L86.71 119.35C92.84 119.35 97.75 117.55 101.45 113.95C105.15 110.35 107 105.44 107 99.22C107 96.48 106.91 93.8 106.73 91.18ZM53.5 0C45.44 0 38.57 2.91 32.87 8.74C27.17 14.57 24.32 21.6 24.32 29.84C24.32 38.07 27.17 45.1 32.87 50.93C38.57 56.76 45.44 59.67 53.5 59.67C61.56 59.67 68.43 56.76 74.13 50.93C79.83 45.1 82.68 38.07 82.68 29.84C82.68 21.6 79.83 14.57 74.13 8.74C68.43 2.91 61.56 0 53.5 0Z" />
</svg>